<svg width="19" height="19" viewBox="0 0 19 19" fill="none" xmlns="http://www.w3.org/2000/svg">
<path d="M8.9246 0.0252054C6.98821 0.266948 5.3732 1.55095 4.71846 3.366C4.2661 4.62228 4.3534 6.12821 4.94068 7.29729C5.27796 7.96707 5.88111 8.70017 6.43665 9.10443C6.64299 9.25899 6.67473 9.29465 6.61521 9.3184C6.57553 9.33426 6.36522 9.41355 6.14698 9.49277C4.65497 10.0357 3.10742 11.1493 2.1035 12.4016C0.790064 14.0423 0.0123185 16.1466 0.000414252 18.0964C-0.00355383 18.6631 0.0162866 18.7305 0.270244 18.9168L0.377382 19H9.50001H18.6226L18.7298 18.9168C18.9837 18.7305 19.0036 18.6671 18.9996 18.0766C18.9798 16.1308 18.202 14.0304 16.8925 12.4016C15.8767 11.1335 14.349 10.0318 12.8531 9.49277C12.6348 9.41355 12.4245 9.33426 12.3848 9.3184C12.3293 9.29465 12.357 9.25899 12.5515 9.11627C12.9006 8.8627 13.4761 8.2563 13.722 7.87587C14.0157 7.4241 14.1665 7.11104 14.3213 6.63547C14.9958 4.58265 14.2776 2.31978 12.5316 0.99614C12.1944 0.734583 11.3253 0.306577 10.9285 0.195614C10.3294 0.0291684 9.46427 -0.0421655 8.9246 0.0252054ZM10.4166 1.38055C11.1111 1.55888 11.6745 1.88385 12.1824 2.39111C12.6983 2.90234 13.0118 3.45715 13.1983 4.17049C13.3252 4.65002 13.3252 5.51395 13.1983 5.98158C12.9999 6.71473 12.7102 7.21011 12.1785 7.74513C11.4761 8.44652 10.6904 8.79926 9.71427 8.8627C8.10723 8.96171 6.5676 7.98687 5.97238 6.4928C5.76207 5.96573 5.71445 5.70417 5.71445 5.07009C5.71445 4.46376 5.78191 4.09519 5.97635 3.6236C6.22634 3.03312 6.7541 2.35544 7.25407 2.00274C7.72234 1.66588 8.33735 1.40829 8.9048 1.30922C9.2381 1.24977 10.0635 1.2894 10.4166 1.38055ZM10.8888 10.2577C13.8927 10.7847 16.337 12.8732 17.3171 15.7503C17.4917 16.2576 17.6544 16.9987 17.6981 17.4663L17.7258 17.7516H9.50001H1.27417L1.30195 17.4624C1.3456 16.9987 1.50829 16.2576 1.68288 15.7503C2.70665 12.7464 5.33352 10.6064 8.48811 10.2022C9.09925 10.1229 10.2857 10.1507 10.8888 10.2577Z" fill="black"/>
</svg>
